# AST/ASF file generated using VICON BodyLanguage
# -----------------------------------------------
:version 1.10
:name VICON
:units
  mass 1.0
  length 0.45
  angle deg
:documentation
   .ast/.asf automatically generated from VICON data using
   VICON BodyBuilder and BodyLanguage model FoxedUp or BRILLIANT.MOD
:root
   order TX TY TZ RX RY RZ
   axis XYZ
   position 0 0 0  
   orientation 0 0 0 
:bonedata
  begin
     id 1 
     name lhipjoint
     direction 0.710188 -0.616876 0.339259 
     length 2.5669 
     axis 0 0 0  XYZ
  end
  begin
     id 2 
     name lfemur
     direction 0.34202 -0.939693 0  
     length 7.12796  
     axis 0 0 20  XYZ
    dof rx ry rz
    limits (-160.0 20.0)
           (-70.0 70.0)
           (-60.0 70.0)
  end
  begin
     id 3 
     name ltibia
     direction 0.34202 -0.939693 0   
     length 7.58108   
     axis 0 0 20   XYZ
    dof rx
    limits (-10.0 170.0)
  end
  begin
     id 4 
     name lfoot
     direction 0.0669471 -0.183936 0.980656   
     length 2.17365   
     axis -90 7.62852e-016 20   XYZ
    dof rx rz
    limits (-45.0 90.0)
           (-70.0 20.0)
  end
  begin
     id 5 
     name ltoes
     direction 1.53508e-011 -4.21705e-011 1   
     length 1.09427   
     axis -90 7.62852e-016 20   XYZ
    dof rx
    limits (-90.0 20.0)
  end
  begin
     id 6 
     name rhipjoint
     direction -0.700191 -0.625589 0.34405   
     length 2.53115  
     axis 0 0 0  XYZ 
  end
  begin
     id 7 
     name rfemur
     direction -0.34202 -0.939693 0   
     length 7.33006   
     axis 0 0 -20   XYZ
    dof rx ry rz
    limits (-160.0 20.0)
           (-70.0 70.0)
           (-70.0 60.0)
  end
  begin
     id 8 
     name rtibia
     direction -0.34202 -0.939693 0   
     length 7.64926   
     axis 0 0 -20   XYZ
    dof rx
    limits (-10.0 170.0)
 end
 begin
     id 9 
     name rfoot
     direction -0.0688927 -0.189281 0.979503   
     length 2.20493  
     axis -90 -7.62852e-016 -20   XYZ
    dof rx rz
    limits (-45.0 90.0)
           (-20.0 70.0)
  end
  begin
     id 10 
     name rtoes
     direction -1.53567e-011 -4.21933e-011 1   
     length 1.10919   
     axis -90 -7.62852e-016 -20   XYZ
    dof rx
    limits (-90.0 20.0)
  end
  begin
     id 11 
     name lowerback
     direction -0.0167868 0.989873 -0.140959   
     length 2.14596   
     axis 0 0 0   XYZ
    dof rx ry rz
    limits (-20.0 45.0)
           (-30.0 30.0)
           (-30.0 30.0)
  end
  begin
     id 12 
     name upperback
     direction 0.0129109 0.998033 0.0613525   
     length 2.10457   
     axis 0 0 0   XYZ
    dof rx ry rz
    limits (-20.0 45.0)
           (-30.0 30.0)
           (-30.0 30.0)
  end
  begin
     id 13 
     name thorax
     direction 0.0177047 0.991119 0.131797   
     length 2.17652   
     axis 0 0 0   XYZ
    dof rx ry rz
    limits (-20.0 45.0)
           (-30.0 30.0)
           (-30.0 30.0)
  end
  begin
     id 14 
     name lowerneck
     direction -0.0336893 0.997548 0.0613464   
     length 1.8912   
     axis 0 0 0   XYZ
    dof rx ry rz
    limits (-20.0 45.0)
           (-30.0 30.0)
           (-30.0 30.0)
  end
  begin
     id 15 
     name upperneck
     direction 0.0435909 0.997179 -0.0611028   
     length 1.8829   
     axis 0 0 0   XYZ
    dof rx ry rz
    limits (-20.0 45.0)
           (-30.0 30.0)
           (-30.0 30.0)
  end
  begin
     id 16
     name head
     direction 0.0175076 0.999444 -0.0283782  
     length 1.93197  
     axis 0 0 0   XYZ
    dof rx ry rz
    limits (-20.0 45.0)
           (-30.0 30.0)
           (-30.0 30.0)
  end
  begin
     id 17 
     name lclavicle
     direction 0.919164 0.389875 0.0559876  
     length 3.60004  
     axis 0 0 0   XYZ
    dof ry rz
    limits (-20.0 10.0)
           (0.0 20.0)
  end
  begin
     id 18 
     name lhumerus
     direction 1 -4.48958e-011 6.89191e-027   
     length 5.43301   
     axis 180 -30 -90   XYZ
    dof rx ry rz
    limits (-60.0 90.0)
           (-90.0 90.0)
           (-90.0 90.0)
  end
  begin
     id 19
     name lradius
     direction 1 -4.4897e-011 3.24727e-027   
     length 3.15936   
     axis 180 -30 -90   XYZ
    dof rx
    limits (-10.0 170.0)
  end
  begin
     id 20
     name lwrist
     direction 1 -4.4897e-011 9.00228e-027   
     length 1.57968   
     axis -6.29373e-015 90 90   XYZ
    dof ry
    limits (-180.0 0.0)
 end
  begin
     id 21 
     name lhand
     direction 1 -4.48968e-011 1.80042e-026   
     length 0.712827   
     axis -1.14882e-014 90 90   XYZ
    dof rx rz
    limits (-90.0 90.0)
           (-45.0 45.0)
  end
  begin
     id 22 
     name lfingers
     direction 1 -4.49019e-011 3.60267e-026   
     length 0.574699   
     axis -2.29769e-014 90 90   XYZ
    dof rx
    limits (0.0 90.0)
  end
  begin
     id 23
     name lthumb
     direction 0.707107 -6.3498e-011 0.707107   
     length 0.825157   
     axis -90 45 5.37419e-014   XYZ
    dof rx rz
    limits (-45.0 45.0)
           (-45.0 45.0)
  end
  begin
     id 24 
     name rclavicle
     direction -0.890334 0.455305 -0.00132111   
     length 3.51494  
     axis 0 0 0   XYZ 
    dof ry rz
    limits (-10.0 20.0)
           (-20.0 0.0)
  end
  begin
     id 25 
     name rhumerus
     direction -1 -4.48967e-011 5.07175e-028  
     length 5.34194   
     axis 180 30 90   XYZ
    dof rx ry rz
    limits (-90.0 60.0)
           (-90.0 90.0)
           (-90.0 90.0)
  end
  begin
     id 26 
     name rradius
     direction -1 -4.48955e-011 3.30467e-027   
     length 3.19351   
     axis 180 30 90   XYZ
    dof rx
    limits (-10.0 170.0)
  end
  begin
     id 27 
     name rwrist
     direction -1 -4.48968e-011 9.00208e-027   
     length 1.59676   
     axis -6.29373e-015 -90 -90   XYZ
    dof ry
    limits (-180.0 0.0)
  end
  begin
     id 28
     name rhand
     direction -1 -4.49e-011 1.80099e-026   
     length 0.743862   
     axis -1.14882e-014 -90 -90   XYZ
    dof rx rz
    limits (-90.0 90.0)
           (-45.0 45.0)
  end
  begin
     id 29
     name rfingers
     direction -1 -4.49009e-011 3.6023e-026   
     length 0.599721   
     axis -2.29769e-014 -90 -90   XYZ
    dof rx
    limits (0.0 90.0)
  end
  begin
     id 30
     name rthumb
     direction -0.707107 -6.35025e-011 0.707107   
     length 0.861083   
     axis -90 -45 -5.37419e-014   XYZ
    dof rx rz
    limits (-45.0 45.0)
           (-45.0 45.0)
  end
:hierarchy
  begin
    root lhipjoint rhipjoint lowerback
    lhipjoint lfemur
    lfemur ltibia
    ltibia lfoot
    lfoot ltoes
    rhipjoint rfemur
    rfemur rtibia
    rtibia rfoot
    rfoot rtoes
    lowerback upperback
    upperback thorax
    thorax lowerneck lclavicle rclavicle
    lowerneck upperneck
    upperneck head
    lclavicle lhumerus
    lhumerus lradius
    lradius lwrist
    lwrist lhand lthumb
    lhand lfingers
    rclavicle rhumerus
    rhumerus rradius
    rradius rwrist
    rwrist rhand rthumb
    rhand rfingers
  end

#!OML:ASF H:\Martial Arts Walks\Project 1\Capture day 1\Session 1\male.ASF
:FULLY-SPECIFIED
:DEGREES
200
root -0.890562 11.4556 11.2627 9.3997 1.80513 -1.85374
lowerback 19.1281 1.55798 -2.18457
upperback -3.59056 1.7145 1.13805
thorax -15.0298 1.04303 1.99784
lowerneck -9.22679 -3.25593 -5.676
upperneck 7.41886 -4.10291 5.09613
head 3.94214 -1.92668 2.22519
rclavicle -1.62506e-014 2.6339e-015
rhumerus 40.052 -2.75655 -62.7883
rradius 94.0644
rwrist 20.6388
rhand 1.04024 -13.9144
rfingers 7.12502
rthumb 26.5864 -42.0682
lclavicle -1.62506e-014 2.6339e-015
lhumerus 42.4767 -4.8681 86.3739
lradius 87.5656
lwrist -35.574
lhand -11.0585 2.05206
lfingers 7.12502
lthumb 14.9641 31.4914
rfemur -73.9164 -5.44529 21.8163
rtibia 108.482
rfoot -33.2547 -17.8543
rtoes -13.4725
lfemur -74.7329 11.6722 -17.8974
ltibia 107.56
lfoot -31.3069 16.3551
ltoes -13.4603
201
root -0.890164 11.456 11.2627 9.4058 1.8117 -1.85852
lowerback 19.1266 1.55671 -2.17724
upperback -3.58822 1.71439 1.13643
thorax -15.0257 1.04216 1.99187
lowerneck -9.24359 -3.24867 -5.67183
upperneck 7.42358 -4.09361 5.10242
head 3.94588 -1.9214 2.22684
rclavicle -1.00635e-014 -1.22253e-014
rhumerus 40.0655 -2.76848 -62.7929
rradius 94.0678
rwrist 20.6505
rhand 1.00972 -13.9138
rfingers 7.12502
rthumb 26.5572 -42.072
lclavicle -1.00635e-014 -1.22253e-014
lhumerus 42.4859 -4.86612 86.3758
lradius 87.5748
lwrist -35.5723
lhand -11.0833 2.07621
lfingers 7.12502
lthumb 14.9403 31.5174
rfemur -73.9209 -5.4512 21.822
rtibia 108.478
rfoot -33.2492 -17.8527
rtoes -13.4654
lfemur -74.7421 11.671 -17.8982
ltibia 107.557
lfoot -31.2983 16.3592
ltoes -13.4787
202
root -0.889694 11.4563 11.2629 9.40944 1.81868 -1.86371
lowerback 19.1262 1.55574 -2.16856
upperback -3.58483 1.71493 1.1344
thorax -15.021 1.04142 1.98444
lowerneck -9.25937 -3.24355 -5.66834
upperneck 7.43055 -4.08726 5.10924
head 3.95033 -1.91758 2.22857
rclavicle 1.56543e-014 1.93318e-014
rhumerus 40.0796 -2.78322 -62.8021
rradius 94.0675
rwrist 20.6616
rhand 0.988941 -13.9138
rfingers 7.12502
rthumb 26.5373 -42.075
lclavicle 1.56543e-014 1.93318e-014
lhumerus 42.4958 -4.8661 86.3797
lradius 87.5837
lwrist -35.5719
lhand -11.1016 2.09464
lfingers 7.12502
lthumb 14.9226 31.5371
rfemur -73.9231 -5.45767 21.8276
rtibia 108.475
rfoot -33.2495 -17.847
rtoes -13.4376
lfemur -74.7477 11.6683 -17.897
ltibia 107.556
lfoot -31.2932 16.3603
ltoes -13.4796
203
root -0.889173 11.4564 11.2632 9.40959 1.82433 -1.86822
lowerback 19.1271 1.55553 -2.16186
upperback -3.57987 1.71603 1.1328
thorax -15.0154 1.04111 1.97845
lowerneck -9.27143 -3.24185 -5.66433
upperneck 7.43685 -4.08532 5.11157
head 3.95409 -1.91621 2.22859
rclavicle 1.41261e-014 4.17448e-015
rhumerus 40.0934 -2.79835 -62.8136
rradius 94.063
rwrist 20.6688
rhand 0.969275 -13.9128
rfingers 7.12502
rthumb 26.5184 -42.0768
lclavicle 1.41261e-014 4.17448e-015
lhumerus 42.5039 -4.86593 86.3841
lradius 87.5942
lwrist -35.5706
lhand -11.1081 2.10985
lfingers 7.12502
lthumb 14.9163 31.5528
rfemur -73.9213 -5.46356 21.832
rtibia 108.474
rfoot -33.2516 -17.8451
rtoes -13.4199
lfemur -74.7479 11.6647 -17.8946
ltibia 107.555
lfoot -31.2924 16.3581
ltoes -13.4674
204
root -0.888623 11.4565 11.2636 9.40656 1.82862 -1.87485
lowerback 19.1295 1.55588 -2.15478
upperback -3.57397 1.71805 1.13198
thorax -15.0096 1.04121 1.97282
lowerneck -9.2806 -3.24298 -5.65749
upperneck 7.44353 -4.08712 5.10768
head 3.95751 -1.91696 2.22602
rclavicle -1.91703e-014 -1.19271e-014
rhumerus 40.1058 -2.81341 -62.8265
rradius 94.0585
rwrist 20.6707
rhand 0.964416 -13.9169
rfingers 7.12502
rthumb 26.5138 -42.0817
lclavicle -1.91703e-014 -1.19271e-014
lhumerus 42.5107 -4.86529 86.3886
lradius 87.6048
lwrist -35.5688
lhand -11.099 2.12198
lfingers 7.12502
lthumb 14.9252 31.5643
rfemur -73.9148 -5.46647 21.8377
rtibia 108.475
rfoot -33.2574 -17.8446
rtoes -13.4038
lfemur -74.7443 11.6634 -17.8889
ltibia 107.556
lfoot -31.2953 16.353
ltoes -13.4504
205
root -0.888008 11.4564 11.2642 9.40185 1.83 -1.87936
lowerback 19.1331 1.55709 -2.15114
upperback -3.56907 1.72032 1.13085
thorax -15.0059 1.04175 1.96871
lowerneck -9.28424 -3.24513 -5.65154
upperneck 7.45076 -4.09032 5.10234
head 3.96025 -1.91858 2.22313
rclavicle 7.51655e-015 1.55549e-014
rhumerus 40.1142 -2.82535 -62.8398
rradius 94.0515
rwrist 20.6675
rhand 0.969314 -13.9223
rfingers 7.12502
rthumb 26.5185 -42.0864
lclavicle 7.51655e-015 1.55549e-014
lhumerus 42.5112 -4.86393 86.3927
lradius 87.6129
lwrist -35.5723
lhand -11.0851 2.12863
lfingers 7.12502
lthumb 14.9385 31.5699
rfemur -73.9059 -5.46742 21.8396
rtibia 108.476
rfoot -33.2663 -17.8432
rtoes -13.3891
lfemur -74.7366 11.6634 -17.8849
ltibia 107.558
lfoot -31.3009 16.3515
ltoes -13.4463
206
root -0.88742 11.4566 11.2647 9.39811 1.82844 -1.88319
lowerback 19.1387 1.5594 -2.15154
upperback -3.56716 1.72311 1.13022
thorax -15.0071 1.04299 1.96725
lowerneck -9.28343 -3.24694 -5.64704
upperneck 7.4596 -4.09321 5.09753
head 3.96278 -1.92012 2.22071
rclavicle 4.28629e-015 1.69464e-014
rhumerus 40.1177 -2.8334 -62.85
rradius 94.0444
rwrist 20.6621
rhand 0.979536 -13.9272
rfingers 7.12502
rthumb 26.5283 -42.0898
lclavicle 4.28629e-015 1.69464e-014
lhumerus 42.506 -4.86196 86.3955
lradius 87.6207
lwrist -35.5753
lhand -11.0617 2.12993
lfingers 7.12502
lthumb 14.9611 31.5695
rfemur -73.8965 -5.46121 21.8391
rtibia 108.477
rfoot -33.2755 -17.8415
rtoes -13.3749
lfemur -74.7291 11.6669 -17.8823
ltibia 107.559
lfoot -31.3068 16.351
ltoes -13.4513
207
root -0.886871 11.4566 11.2652 9.3968 1.82475 -1.88452
lowerback 19.1444 1.56227 -2.15673
upperback -3.56815 1.72544 1.12931
thorax -15.0121 1.0445 1.96836
lowerneck -9.28027 -3.24874 -5.64457
upperneck 7.47225 -4.09616 5.09372
head 3.96614 -1.92173 2.21894
rclavicle -5.34855e-015 4.96962e-017
rhumerus 40.1169 -2.83628 -62.8567
rradius 94.0381
rwrist 20.6546
rhand 0.993243 -13.9327
rfingers 7.12502
rthumb 26.5414 -42.0933
lclavicle -5.34855e-015 4.96962e-017
lhumerus 42.496 -4.85962 86.397
lradius 87.6256
lwrist -35.5791
lhand -11.0361 2.12331
lfingers 7.12502
lthumb 14.9857 31.5611
rfemur -73.8928 -5.45247 21.8358
rtibia 108.478
rfoot -33.2813 -17.8392
rtoes -13.3582
lfemur -74.7268 11.6726 -17.883
ltibia 107.561
lfoot -31.3142 16.3456
ltoes -13.4543
208
root -0.886345 11.4567 11.2655 9.39947 1.82178 -1.88246
lowerback 19.1495 1.56486 -2.16622
upperback -3.57253 1.72629 1.12799
thorax -15.0207 1.04577 1.97191
lowerneck -9.27574 -3.24711 -5.64734
upperneck 7.48557 -4.09476 5.09866
head 3.96954 -1.92091 2.22101
rclavicle 9.84605e-015 2.13694e-015
rhumerus 40.1127 -2.83506 -62.8586
rradius 94.0318
rwrist 20.6478
rhand 1.00767 -13.9347
rfingers 7.12502
rthumb 26.5552 -42.0932
lclavicle 9.84605e-015 2.13694e-015
lhumerus 42.4822 -4.85828 86.3954
lradius 87.6305
lwrist -35.5745
lhand -11.0116 2.10988
lfingers 7.12502
lthumb 15.0093 31.5459
rfemur -73.8943 -5.44272 21.8291
rtibia 108.479
rfoot -33.2821 -17.8395
rtoes -13.3526
lfemur -74.7289 11.6758 -17.8881
ltibia 107.56
lfoot -31.3192 16.3411
ltoes -13.4563
209
root -0.885837 11.4568 11.2657 9.40652 1.8199 -1.87892
lowerback 19.1523 1.56712 -2.17736
upperback -3.57996 1.72635 1.1266
thorax -15.0317 1.04689 1.97659
lowerneck -9.26963 -3.24374 -5.65196
upperneck 7.50201 -4.09114 5.10559
head 3.97359 -1.91896 2.22415
rclavicle -1.24862e-015 1.25234e-014
rhumerus 40.1041 -2.82946 -62.8537
rradius 94.0287
rwrist 20.6409
rhand 1.02016 -13.9368
rfingers 7.12502
rthumb 26.5671 -42.0935
lclavicle -1.24862e-015 1.25234e-014
lhumerus 42.4668 -4.85816 86.3914
lradius 87.6306
lwrist -35.567
lhand -10.9952 2.09023
lfingers 7.12502
lthumb 15.0251 31.5251
rfemur -73.9041 -5.43424 21.8218
rtibia 108.481
rfoot -33.2763 -17.841
rtoes -13.3369
lfemur -74.7381 11.6765 -17.8947
ltibia 107.561
lfoot -31.3245 16.3306
ltoes -13.4471
